<svg width="14" height="14" viewBox="0 0 14 14" fill="none" xmlns="http://www.w3.org/2000/svg">
<path fill-rule="evenodd" clip-rule="evenodd" d="M7 0C5.14348 0 3.36301 0.737498 2.05025 2.05025C0.737498 3.36301 0 5.14348 0 7C0 8.85652 0.737498 10.637 2.05025 11.9497C3.36301 13.2625 5.14348 14 7 14C8.85652 14 10.637 13.2625 11.9497 11.9497C13.2625 10.637 14 8.85652 14 7C14 5.14348 13.2625 3.36301 11.9497 2.05025C10.637 0.737498 8.85652 0 7 0ZM10.901 7L5 3.066V7V10.934L10.901 7Z" fill="black" fill-opacity="0.7"/>
<path d="M10.901 7L5 3.066V7V10.934L10.901 7Z" fill="white" fill-opacity="0.95"/>
<path d="M7 0.0996094C8.82999 0.0996094 10.5849 0.827093 11.8789 2.12109C13.1729 3.41509 13.9004 5.17001 13.9004 7C13.9004 8.82999 13.1729 10.5849 11.8789 11.8789C10.5849 13.1729 8.82999 13.9004 7 13.9004C5.17001 13.9004 3.41509 13.1729 2.12109 11.8789C0.827093 10.5849 0.0996094 8.82999 0.0996094 7C0.0996094 5.17001 0.827093 3.41509 2.12109 2.12109C3.41509 0.827093 5.17001 0.0996094 7 0.0996094ZM4.90039 11.1211L5.05566 11.0176L10.9561 7.08301L11.0811 7L10.9561 6.91699L5.05566 2.98242L4.90039 2.87891V11.1211ZM5.09961 3.25195L10.7207 7L5.09961 10.7471V3.25195Z" stroke="white" stroke-width="0.2"/>
</svg>
