<svg width="42" height="42" viewBox="0 0 42 42" fill="none" xmlns="http://www.w3.org/2000/svg">
<path d="M10.5 33.25H15.75V24.5C15.75 24.0042 15.918 23.5888 16.254 23.254C16.59 22.9192 17.0053 22.7512 17.5 22.75H24.5C24.9958 22.75 25.4118 22.918 25.7478 23.254C26.0838 23.59 26.2512 24.0053 26.25 24.5V33.25H31.5V17.5L21 9.625L10.5 17.5V33.25ZM7 33.25V17.5C7 16.9458 7.12425 16.4208 7.37275 15.925C7.62125 15.4292 7.96367 15.0208 8.4 14.7L18.9 6.825C19.5125 6.35833 20.2125 6.125 21 6.125C21.7875 6.125 22.4875 6.35833 23.1 6.825L33.6 14.7C34.0375 15.0208 34.3805 15.4292 34.629 15.925C34.8775 16.4208 35.0012 16.9458 35 17.5V33.25C35 34.2125 34.657 35.0368 33.971 35.7228C33.285 36.4088 32.4613 36.7512 31.5 36.75H24.5C24.0042 36.75 23.5888 36.582 23.254 36.246C22.9192 35.91 22.7512 35.4947 22.75 35V26.25H19.25V35C19.25 35.4958 19.082 35.9117 18.746 36.2477C18.41 36.5837 17.9947 36.7512 17.5 36.75H10.5C9.5375 36.75 8.71383 36.4076 8.029 35.7228C7.34417 35.0379 7.00117 34.2137 7 33.25Z" fill="#97AFE3"/>
</svg>
