<svg width="80" height="80" viewBox="0 0 80 80" fill="none" xmlns="http://www.w3.org/2000/svg">
<path fill-rule="evenodd" clip-rule="evenodd" d="M35.7496 0.333984C30.1021 0.334466 24.5365 1.6855 19.5173 4.27438C14.4981 6.86325 10.1708 10.6149 6.89641 15.2163C3.62201 19.8177 1.49547 25.1354 0.694209 30.7258C-0.107047 36.3162 0.440214 42.0172 2.29033 47.3531C4.14046 52.689 7.23979 57.505 11.3297 61.3995C15.4197 65.294 20.3817 68.1539 25.8017 69.7407C31.2218 71.3274 36.9427 71.595 42.4872 70.5211C48.0317 69.4472 53.239 67.063 57.6746 63.5673L72.8913 78.784C73.6771 79.543 74.7296 79.963 75.8221 79.9535C76.9146 79.944 77.9596 79.5058 78.7322 78.7332C79.5047 77.9607 79.9429 76.9156 79.9524 75.8232C79.9619 74.7307 79.5419 73.6782 78.7829 72.8923L63.5663 57.6757C67.6829 52.4532 70.2461 46.1773 70.9625 39.5662C71.6789 32.955 70.5196 26.2757 67.6172 20.2927C64.7148 14.3097 60.1866 9.26464 54.5509 5.73495C48.9151 2.20526 42.3994 0.333538 35.7496 0.333984ZM8.66626 35.7507C8.66626 28.5677 11.5197 21.679 16.5988 16.5998C21.6779 11.5207 28.5666 8.66732 35.7496 8.66732C42.9325 8.66732 49.8213 11.5207 54.9004 16.5998C59.9795 21.679 62.8329 28.5677 62.8329 35.7507C62.8329 42.9336 59.9795 49.8224 54.9004 54.9015C49.8213 59.9806 42.9325 62.834 35.7496 62.834C28.5666 62.834 21.6779 59.9806 16.5988 54.9015C11.5197 49.8224 8.66626 42.9336 8.66626 35.7507Z" fill="#D4D4D4"/>
</svg>
